<?xml version="1.0" encoding="UTF-8" standalone="no"?>
<svg
   enable-background="new 0 0 409.5 408.4"
   version="1.1"
   viewBox="0 0 409.5 408.4"
   xml:space="preserve"
   id="svg8"
   sodipodi:docname="HolyQuran-icon-green.svg"
   inkscape:version="1.2.2 (732a01da63, 2022-12-09)"
   xmlns:inkscape="http://www.inkscape.org/namespaces/inkscape"
   xmlns:sodipodi="http://sodipodi.sourceforge.net/DTD/sodipodi-0.dtd"
   xmlns="http://www.w3.org/2000/svg"
   xmlns:svg="http://www.w3.org/2000/svg"><defs
   id="defs12" /><sodipodi:namedview
   id="namedview10"
   pagecolor="#ffffff"
   bordercolor="#666666"
   borderopacity="1.0"
   inkscape:showpageshadow="2"
   inkscape:pageopacity="0.0"
   inkscape:pagecheckerboard="0"
   inkscape:deskcolor="#d1d1d1"
   showgrid="false"
   inkscape:zoom="2.0494613"
   inkscape:cx="152.47909"
   inkscape:cy="204.44396"
   inkscape:window-width="1920"
   inkscape:window-height="1017"
   inkscape:window-x="-8"
   inkscape:window-y="-8"
   inkscape:window-maximized="1"
   inkscape:current-layer="svg8" />
<style
   type="text/css"
   id="style2">
	.st0{fill:#2b1a10;}
</style>

<g
   transform="matrix(0.94595,0,0,0.95265,-84.23854,-410.24952)"
   id="g6">
	
		<path
   class="st0"
   d="m 245.49,833.29 c -5.5738,-2.0102 -10.325,-5.0255 -12.792,-8.1322 -4.7514,-6.122 -7.8581,-14.254 -8.6804,-23.483 -0.45686,-4.7514 -0.63961,-5.0255 -2.1016,-4.66 -0.91373,0.27412 -4.9341,1.0051 -9.0459,1.6447 -17.544,2.7412 -35.636,-1.6447 -45.595,-11.148 -3.8377,-3.6549 -7.9495,-9.7769 -9.4114,-14.071 -2.8326,-8.0408 -3.7463,-21.747 -2.0102,-31.524 0.18275,-1.3706 0.0914,-2.3757 -0.27412,-2.3757 -0.36549,0 -3.0153,1.8275 -5.8479,4.1118 -6.5789,5.2083 -10.508,7.0357 -15.259,7.0357 -4.5687,0 -7.9495,-1.3706 -13.066,-5.2083 -4.9342,-3.7463 -8.0408,-8.4977 -10.325,-15.808 -3.8377,-12.244 -1.6447,-25.402 7.1271,-43.219 1.6447,-3.1981 2.9239,-6.122 2.9239,-6.4875 0,-0.36549 -1.9188,-1.5533 -4.2945,-2.8326 -4.4773,-2.2843 -10.782,-8.2236 -13.34,-12.701 -3.5636,-6.122 -4.8428,-15.625 -3.1067,-24.579 1.2792,-6.853 6.6702,-19.097 12.061,-27.229 4.8428,-7.4012 5.0255,-7.7667 3.929,-9.4114 -2.6498,-4.0204 -2.1016,-12.518 1.2792,-21.199 2.193,-5.5738 10.325,-18 15.077,-23.026 5.6651,-5.9392 6.6702,-7.6753 5.5738,-9.6856 -1.1878,-2.193 -0.3655,-7.584 2.3757,-16.082 2.4671,-7.7667 3.929,-9.4114 12.518,-13.889 14.62,-7.6753 57.291,-23.3 82.875,-30.519 4.9341,-1.3706 11.878,-3.3808 15.625,-4.4773 7.4926,-2.193 29.331,-7.3098 45.869,-10.782 16.173,-3.3808 23.574,-2.9239 27.777,1.5533 3.929,4.2945 3.929,9.1373 -0.0914,17.909 -5.391,11.604 -9.9597,17.635 -26.772,34.722 -7.0357,7.1271 -13.98,14.528 -15.442,16.356 -3.5636,4.3859 -3.4722,2.5584 0.27411,-5.2083 2.8326,-5.8479 3.929,-7.2185 18.275,-21.473 8.4063,-8.4063 16.264,-16.539 17.361,-18.092 2.4671,-3.3808 2.6498,-5.8479 0.63961,-9.1373 -2.7412,-4.4773 -11.148,-5.6651 -24.214,-3.5636 -17.635,2.8326 -56.651,13.249 -81.322,21.655 -41.483,14.163 -50.529,17.635 -64.053,24.579 -3.5636,1.8275 -6.4875,3.7463 -6.4875,4.2032 0,2.193 12.244,11.696 58.205,45.047 2.5584,1.8275 8.5891,6.4875 13.523,10.325 4.9341,3.8377 9.32,7.3098 9.7769,7.6753 0.63961,0.45687 3.1067,0 7.0357,-1.1878 10.325,-3.1981 17.726,-4.8428 24.488,-5.2996 3.5636,-0.27412 6.4875,-0.63961 6.4875,-0.82236 0,-0.18274 -0.63961,-1.9188 -1.462,-4.0204 -2.6498,-6.7616 -5.1169,-19.462 -7.0357,-37.006 -1.0051,-9.5028 -1.9188,-18.366 -1.9188,-19.645 0,-2.7412 3.5636,-13.158 4.5687,-13.158 1.1878,0 10.782,20.376 12.061,25.402 0.63961,2.6498 -0.82236,2.7412 -3.1981,0.18274 -1.0051,-1.0051 -2.193,-1.8275 -2.7412,-1.8275 -2.2843,0 -0.36549,20.559 2.8326,30.427 3.1067,9.8683 6.3047,14.62 16.082,24.122 8.2236,8.0408 9.1373,9.1373 9.0459,11.513 -0.0914,3.8377 -1.1878,13.34 -1.7361,13.889 -0.27412,0.27412 -2.5584,-1.462 -5.1169,-3.8377 -5.2996,-4.9342 -11.513,-8.0408 -18.823,-9.5942 -8.4977,-1.8275 -21.29,-1.1878 -24.853,1.1878 -0.91373,0.63961 -0.63961,1.0965 1.462,2.7412 12.792,9.9597 32.346,27.686 47.149,42.763 16.904,17.087 21.747,21.199 26.59,22.386 1.6447,0.36549 2.0102,0.27412 2.0102,-0.91373 0,-1.2792 -1.1878,-16.904 -4.4773,-56.377 -0.82236,-9.7769 -2.1016,-29.057 -3.0153,-42.671 -0.9137,-13.614 -1.6447,-25.859 -1.9188,-27.138 -0.36549,-2.5584 3.4722,-11.878 4.8428,-11.878 1.8275,0 13.249,27.869 13.889,33.808 l 0.27412,3.3808 -4.1118,-4.3859 c -3.4722,-3.7463 -4.2032,-4.2032 -4.66,-3.0153 -0.82236,2.1016 0.91373,26.864 4.8428,70.54 0.36549,4.4773 1.0965,12.335 1.5533,17.452 1.462,16.813 2.193,23.94 2.6498,24.579 1.1878,1.9188 15.533,-1.0965 21.473,-4.5686 6.4875,-3.7463 6.5789,-3.929 6.122,-13.34 -0.27412,-4.4773 -0.82236,-11.056 -1.1878,-14.711 -1.7361,-15.351 -3.7463,-36.275 -4.4773,-46.6 -0.45687,-6.122 -1.2792,-15.99 -1.8275,-21.93 -0.63961,-5.9392 -1.462,-15.99 -1.8275,-22.295 -0.36549,-6.3047 -1.1878,-16.995 -1.8275,-23.757 -0.54824,-6.7616 -1.462,-18.731 -2.0102,-26.772 -0.54823,-8.0408 -1.2792,-15.99 -1.7361,-17.818 -0.73099,-2.9239 -0.63962,-3.929 0.91373,-8.1322 1.0051,-2.6498 2.1016,-5.4824 2.5584,-6.3048 0.73099,-1.3706 0.91373,-1.3706 2.1016,1.0965 0.73099,1.3706 3.6549,7.9495 6.5789,14.62 5.7565,13.066 7.7667,19.462 6.6702,20.65 -0.73099,0.73098 -1.8275,-0.27412 -5.9392,-5.5738 -1.0965,-1.3706 -2.2843,-2.2843 -2.5584,-2.0102 -0.54824,0.54824 2.3757,39.108 4.66,60.306 0.63961,5.7565 1.5533,16.264 2.193,23.392 0.6397,7.128 1.7361,20.376 2.5584,29.331 2.2843,25.31 2.7412,43.859 1.1878,51.626 -2.193,11.056 -5.5738,16.539 -12.975,21.29 -4.1118,2.6498 -13.066,6.122 -15.716,6.122 -3.6549,0 -3.7463,0.0914 -3.7463,13.615 0,17.909 -2.5584,33.991 -6.7616,42.214 -1.9188,3.8377 -3.1981,4.4773 -2.6498,1.2792 1.6447,-9.5028 2.193,-24.853 1.3706,-39.839 -0.45687,-8.6804 -1.0965,-16.264 -1.2792,-16.813 -0.18275,-0.54824 -1.5534,-1.3706 -2.9239,-1.7361 -7.3098,-2.2843 -12.518,-6.122 -24.122,-18.275 -20.742,-21.564 -36.641,-37.189 -43.311,-42.397 -3.5636,-2.8326 -6.7616,-4.8428 -6.9444,-4.66 -0.27412,0.27412 1.9188,3.3808 4.7514,6.9444 5.9392,7.4926 9.7769,13.615 12.153,19.554 1.462,3.4722 1.7361,5.4824 1.7361,13.706 0,9.1373 -0.0914,9.8683 -2.0102,13.889 -1.0965,2.2843 -3.2894,5.2996 -4.8428,6.6702 -6.0306,5.4824 -19.28,10.873 -44.316,18.092 -6.5789,1.9188 -13.066,3.8377 -14.528,4.3859 -10.142,3.929 -16.447,6.853 -20.742,9.6856 -5.7565,3.8377 -13.615,10.417 -14.346,12.153 -0.91373,2.2843 -0.63961,16.721 0.54824,21.564 2.9239,12.609 11.148,21.016 25.036,25.859 4.1118,1.462 7.4012,1.9188 14.437,2.2843 8.5891,0.3655 20.65,-0.63961 24.397,-2.1016 1.0965,-0.45686 2.193,-2.5584 4.0204,-7.4926 1.3706,-3.8377 3.929,-9.7769 5.6651,-13.158 1.8275,-3.3808 3.2894,-6.4875 3.2894,-6.7616 0,-0.2741 -2.193,-2.9239 -4.9342,-5.8479 l -4.9341,-5.2996 4.2945,-4.66 c 2.3757,-2.5584 4.5687,-4.7514 4.9342,-4.9341 0.36549,-0.18275 1.2792,0.27412 2.1016,1.0051 1.3706,1.2792 1.5533,1.1878 4.9342,-1.5533 1.9188,-1.5533 7.4012,-6.6702 12.061,-11.239 l 8.4977,-8.315 -3.1981,-2.9239 c -2.6498,-2.4671 -3.1981,-3.3808 -3.1067,-5.7565 0,-3.8377 2.2843,-8.5891 5.1169,-10.508 3.198,-2.2843 5.391,-1.8275 7.0357,1.6447 1.2792,2.6498 1.2792,3.1981 0.27412,8.315 -1.0965,5.4824 -1.0965,5.5738 0.63961,7.8581 1.8275,2.4671 2.3757,6.853 0.91373,7.6753 -0.45686,0.27412 -1.6447,-0.45686 -2.6498,-1.8275 -1.0051,-1.2792 -2.193,-2.2843 -2.7412,-2.2843 -0.5482,0 -2.5584,1.8275 -4.4773,4.1118 -1.9188,2.2843 -7.1271,6.9444 -11.513,10.508 -4.3859,3.5636 -8.0408,6.6702 -8.1322,7.0357 -0.18274,0.36549 1.0965,2.193 2.7412,4.0204 1.6447,1.8275 3.0153,3.6549 3.0153,4.1118 0,0.45687 -2.6498,4.7514 -5.8479,9.5028 -5.4824,8.315 -10.051,17.452 -10.965,22.386 -0.36549,1.7361 -0.18275,2.2843 0.82236,2.2843 2.7412,0 16.904,-5.7565 31.25,-12.609 13.066,-6.3047 33.077,-20.65 33.077,-23.757 0,-2.3757 -2.8326,-10.051 -6.122,-16.539 -1.6447,-3.2894 -4.9341,-11.422 -7.3098,-17.909 -2.3757,-6.4875 -4.66,-12.975 -5.2083,-14.254 -0.82235,-2.1016 -0.73098,-3.0153 0.82236,-8.0408 1.0051,-3.1067 2.0102,-5.7565 2.2843,-5.9392 0.82236,-0.45687 18.549,20.559 18.549,22.021 0,1.0965 -2.2843,0.73098 -5.2996,-1.0051 -1.8275,-1.0051 -3.1981,-1.3706 -3.5636,-0.91373 -0.82235,0.91373 0.82236,5.7565 5.4824,15.533 4.66,9.9597 5.9392,14.894 5.391,21.93 -0.45687,5.8479 -2.4671,12.701 -4.8428,16.63 -6.6702,10.782 -35.179,28.417 -60.398,37.189 -7.8581,2.7412 -7.9495,2.8326 -8.4063,5.4824 -0.63961,3.6549 0.82236,12.335 2.6498,16.173 3.2894,6.7616 10.965,10.782 18.275,9.5028 7.4926,-1.3706 10.142,-3.4722 30.701,-24.122 27.777,-27.96 31.524,-30.244 70.266,-44.407 7.6753,-2.8326 14.985,-5.4824 16.173,-5.9392 2.0102,-0.82236 2.1016,-1.0051 1.8275,-4.7514 -0.18274,-2.1016 -0.91373,-7.0357 -1.6447,-10.965 -1.7361,-9.32 -1.2792,-15.625 1.8275,-23.757 2.0102,-5.2083 3.1067,-7.0357 6.6702,-10.508 3.2894,-3.198 4.9342,-4.2945 7.3098,-4.66 6.0306,-1.0051 11.97,4.2945 15.808,14.254 2.3757,6.3047 2.6498,13.98 0.82236,21.93 -2.4671,10.417 -6.3961,16.721 -13.432,21.473 -2.0102,1.3706 -3.6549,2.8326 -3.6549,3.2894 0,1.0965 3.7463,6.122 6.4875,8.7718 4.1118,3.929 15.533,5.2996 24.214,3.0153 5.8479,-1.5533 13.158,-5.4824 14.346,-7.7667 1.0965,-2.193 1.1878,-9.9597 0.27412,-21.107 -0.3655,-4.4773 -1.0965,-13.889 -1.5534,-20.833 -0.45686,-6.9444 -1.6447,-22.295 -2.5584,-34.174 -0.9137,-11.879 -2.1016,-27.046 -2.5584,-33.808 -0.45686,-6.7616 -1.0965,-15.899 -1.5533,-20.468 -1.2792,-13.98 -3.5636,-48.062 -4.7514,-70.54 -0.63961,-11.878 -1.462,-23.209 -1.8275,-25.219 -0.63961,-3.3808 -0.45687,-4.2032 1.9188,-9.2287 l 2.5584,-5.5738 1.462,2.193 c 3.8377,5.8479 13.889,33.443 13.066,35.727 -0.45687,1.2792 -0.73099,1.1878 -2.5584,-0.91373 -1.0965,-1.2792 -2.9239,-3.3808 -4.0204,-4.8428 l -2.0102,-2.5584 v 5.2083 c 0,6.0306 1.9188,39.747 2.5584,43.037 0.18275,1.1878 0.73099,7.2185 1.0965,13.34 0.36549,6.122 1.5533,21.29 2.5584,33.808 7.2185,88.266 7.3098,92.744 3.7463,110.2 -2.9239,14.528 -6.5789,20.193 -15.808,24.853 -5.8479,2.9239 -11.513,4.0204 -18.457,3.6549 -10.142,-0.54824 -17.27,-5.9392 -22.478,-16.904 -2.3757,-4.9342 -2.7412,-5.2996 -4.4773,-5.0255 -1.0965,0.18274 -8.0408,2.7412 -15.625,5.6651 -38.377,14.894 -38.559,14.985 -45.961,20.468 -9.6856,7.1271 -16.904,13.797 -27.046,24.945 -5.6651,6.3047 -11.97,12.975 -13.98,14.802 -7.3098,6.9444 -16.082,9.5028 -23.392,6.9444 z m 146.2,-97.678 c 3.6549,-3.3808 3.7463,-3.5636 3.2894,-6.853 -0.73099,-5.0255 -4.8428,-14.528 -7.584,-17.27 -4.3859,-4.4773 -9.6855,-4.2032 -14.071,0.63961 -2.7412,3.0153 -2.7412,3.1067 -2.2843,7.584 0.54824,5.2083 3.8377,19.006 5.2996,22.661 l 1.0051,2.4671 5.2996,-2.8326 c 2.9239,-1.6447 7.0357,-4.4773 9.0459,-6.3961 z m -252.56,1.7361 c 2.193,-1.3706 6.853,-4.9342 10.234,-8.0408 12.153,-10.782 19.28,-16.447 24.397,-19.554 7.3098,-4.3859 20.65,-9.5942 35.727,-14.071 28.143,-8.315 38.377,-12.244 45.047,-17.087 2.4671,-1.8275 3.1981,-2.7412 3.1981,-4.5687 0,-5.1169 -5.9392,-15.716 -15.442,-27.503 -5.391,-6.7616 -23.848,-25.859 -25.402,-26.407 -3.5636,-1.0965 -17.818,9.2287 -60.672,44.225 -9.1373,7.4926 -18.183,12.792 -24.762,14.437 l -5.2996,1.3706 -3.5636,6.3047 c -4.2945,7.584 -6.9444,14.802 -8.5891,23.026 -1.462,7.9495 -1.462,11.97 0.18275,17.909 1.462,5.2996 3.198,7.9494 7.0357,10.873 2.193,1.6447 2.9239,1.7361 8.1322,1.462 4.8428,0.0914 6.3961,-0.36549 9.7769,-2.3757 z m 81.322,-63.961 c -3.198,-2.8326 -6.122,-5.2083 -6.4875,-5.2083 -0.3655,0 -2.1016,2.193 -3.7463,4.8428 -2.1016,3.3808 -3.4722,4.8428 -4.5686,4.8428 -0.82236,0 -3.8377,-2.2843 -7.0357,-5.4824 l -5.5738,-5.4824 1.0965,-2.193 c 1.2792,-2.4671 6.3047,-8.4977 7.0357,-8.4977 0.27412,0 3.0153,2.193 6.0306,4.8428 3.0153,2.6498 5.7565,4.8428 5.9392,4.8428 0.18274,0 2.0102,-2.193 3.929,-4.8428 2.0102,-2.6498 4.0204,-4.8428 4.5686,-4.8428 1.0965,0 8.315,5.8479 11.787,9.5028 2.1016,2.2843 2.1016,2.2843 0.82236,4.3859 -2.4671,3.8377 -6.3961,8.4063 -7.3098,8.4063 -0.36549,0 -3.2894,-2.2843 -6.4875,-5.1169 z m 48.245,31.432 c -0.18274,-1.9188 -0.91373,-3.929 -1.5533,-4.5687 -1.5533,-1.5533 -4.7514,-0.63961 -5.391,1.462 -0.36549,1.2792 0.0914,2.193 2.193,4.1118 3.929,3.5636 5.2996,3.2894 4.7514,-1.0051 z m -139.8,-37.372 c 7.0357,-2.3757 13.523,-6.3961 22.843,-13.98 4.8428,-3.929 10.873,-8.7718 13.432,-10.782 2.5584,-2.0102 7.2185,-5.8479 10.508,-8.5891 5.9392,-5.0255 22.021,-17.27 27.321,-20.833 1.5533,-1.0051 2.7412,-2.193 2.7412,-2.6498 0,-0.73098 -9.6856,-9.5942 -20.559,-18.64 -11.239,-9.4114 -37.006,-31.706 -40.478,-34.996 l -3.4722,-3.2894 -2.0102,2.1016 c -4.2945,4.5687 -10.965,14.254 -13.523,19.554 -3.3808,7.1271 -4.1118,13.98 -1.7361,17.726 2.2843,3.6549 5.1169,3.2894 9.7769,-1.0051 2.0102,-1.9188 3.6549,-3.1981 3.6549,-2.9239 0,1.2792 -4.8428,9.4114 -7.1271,12.153 -1.3706,1.6447 -4.2945,3.8377 -6.5789,4.8428 -3.4722,1.6447 -4.4773,2.6498 -7.4012,7.3098 -8.5891,13.706 -13.615,28.965 -12.792,38.651 0.54824,7.2185 3.929,12.518 9.7769,15.625 3.198,1.6447 10.417,1.462 15.625,-0.27412 z m -9.2287,-19.919 c 0,-0.73098 4.66,-4.7514 15.259,-13.158 9.1373,-7.3098 23.392,-21.016 25.767,-24.762 l 1.5533,-2.4671 -3.1067,-3.1067 c -2.5584,-2.6498 -3.1067,-3.6549 -3.0153,-6.0306 0,-3.6549 2.6498,-8.4063 5.5738,-10.142 5.0255,-2.9239 7.9495,2.0102 6.5789,10.691 -0.73098,4.5686 -0.73098,4.5686 1.7361,7.8581 1.6447,2.193 2.4671,4.0204 2.4671,5.7565 0,3.4722 -1.0051,3.7463 -3.2894,0.73098 -3.5636,-4.66 -4.4773,-4.66 -7.3098,-0.18275 -6.4875,10.142 -15.808,18.549 -34.722,31.341 -6.0306,3.929 -7.4926,4.66 -7.4926,3.4722 z m 46.052,-49.067 c 0,-3.929 -1.462,-5.6651 -4.0204,-5.0255 -3.1981,0.82235 -3.2894,2.5584 -0.18275,5.391 1.462,1.3706 3.0153,2.4671 3.4722,2.4671 0.45687,0 0.73099,-1.2792 0.73099,-2.8326 z m 14.802,151.31 c -2.8326,-2.8326 -3.0153,-3.2894 -2.6498,-6.0306 0.63961,-3.8377 2.2843,-6.9444 4.3859,-8.315 0.91373,-0.63962 6.6702,-2.9239 12.792,-5.2083 18.64,-6.9444 32.529,-12.335 36.001,-14.071 5.4824,-2.7412 6.6702,-2.9239 6.6702,-1.1878 0,0.82236 -0.73098,2.2843 -1.6447,3.3808 -1.8275,2.0102 -17.178,8.7718 -32.346,14.254 -15.168,5.4822 -22.386,8.5891 -22.386,9.5028 0,0.45687 0.82236,2.0102 1.8275,3.3808 1.8275,2.5584 2.4671,6.2134 1.0965,7.0357 -0.36549,0.18275 -2.1016,-1.0051 -3.7463,-2.7412 z m 272.93,-15.625 c 1.7361,-8.5891 2.0102,-16.813 1.2792,-32.255 -0.73098,-14.163 -3.5636,-49.341 -6.0306,-74.926 -1.3706,-13.98 -2.193,-23.209 -3.2894,-37.737 -0.54824,-7.6753 -1.462,-15.077 -1.9188,-16.447 -0.82235,-2.193 -0.63961,-3.198 1.2792,-8.5891 l 2.1016,-6.122 1.6447,2.1016 c 2.0102,2.4671 11.604,23.483 13.249,28.874 2.0102,6.7616 1.5533,7.0357 -3.3808,2.193 l -4.5687,-4.4773 0.54824,9.3201 c 0.27412,5.1169 1.0965,14.802 1.9188,21.564 0.73099,6.7616 1.9188,18.092 2.5584,25.219 0.6396,7.127 1.6447,18.183 2.2843,24.488 1.5533,14.985 1.7361,38.559 0.36549,46.418 -1.0965,6.4875 -3.1067,13.706 -5.4824,19.097 -1.8275,4.1118 -3.2894,4.8428 -2.5584,1.2792 z m -56.469,-58.753 -6.3961,-6.122 -2.3757,2.9239 c -1.2792,1.6447 -3.1981,3.929 -4.2945,5.2083 l -2.0102,2.193 -12.061,-12.061 1.462,-2.8326 c 0.82236,-1.5533 2.6498,-4.2032 4.0204,-5.7565 l 2.5584,-2.9239 6.2134,5.8479 c 6.9444,6.5789 5.9392,6.6702 10.873,-0.54824 1.2792,-1.9188 2.8326,-3.4722 3.3808,-3.4722 1.0051,0 13.158,11.604 13.158,12.609 0,0.91373 -6.9444,11.148 -7.584,11.148 -0.3655,-0.0914 -3.4722,-2.8326 -6.9444,-6.2134 z m -7.8581,-25.493 c 0.18275,-4.2945 0,-13.158 -0.54824,-19.554 -1.1878,-16.447 -1.5533,-18.731 -2.6498,-18.731 -0.54824,0 -2.9239,1.462 -5.2996,3.198 -2.3757,1.7361 -6.2134,4.2945 -8.4977,5.5738 -7.9495,4.5687 -6.4875,2.4671 4.1118,-5.7565 10.965,-8.4977 10.417,-7.4926 9.8683,-16.995 -0.27412,-4.3859 -1.0051,-12.153 -1.6447,-17.27 -1.2792,-10.508 -2.193,-20.924 -5.5738,-63.504 -0.45687,-6.122 -1.3706,-12.609 -1.9188,-14.528 -1.0051,-3.1981 -0.91373,-3.4722 1.5533,-8.7718 1.3706,-2.9239 2.8326,-5.391 3.2894,-5.391 1.0051,0 12.335,27.138 14.163,34.082 0.63961,2.4671 0.63961,3.4722 0,4.1118 -0.63961,0.63962 -1.3706,0.18275 -2.8326,-1.7361 -3.6549,-4.66 -5.2083,-6.3961 -5.5738,-5.9392 -0.45687,0.45686 3.0153,42.763 3.5636,43.676 0.18274,0.27412 0.73098,5.391 1.0965,11.239 1.0051,13.889 2.2843,24.488 3.0153,24.488 0.27412,0 1.9188,-1.5533 3.6549,-3.3808 l 3.1067,-3.3808 -1.3706,-2.3757 c -0.73099,-1.2792 -1.8275,-3.1067 -2.4671,-4.0204 -0.82235,-1.3706 -0.91373,-2.193 -0.0914,-5.2083 2.1016,-8.0408 6.2134,-11.148 9.5028,-7.4012 2.1016,2.4671 2.193,4.8428 0.18274,10.508 -1.0965,3.1067 -1.3706,5.2996 -1.0051,7.4926 0.27412,1.7361 0.27412,3.8377 -0.0914,4.7514 l -0.54824,1.6447 -3.2894,-3.1067 -7.4926,9.1373 v 15.99 c 0,16.447 -1.0965,26.041 -3.929,34.448 -1.9188,6.6702 -2.7412,5.4824 -2.2843,-3.2894 z m 17.178,-65.971 c 1.462,-3.929 -2.1016,-8.5891 -4.8428,-6.3047 -1.2792,1.0051 -0.82235,3.0153 1.2792,6.122 1.8275,2.4671 2.6498,2.4671 3.5636,0.18275 z m -111.38,16.173 c 0,-0.36549 -0.18274,-3.7463 -0.27411,-7.6753 -0.3655,-8.8632 -2.8326,-21.564 -5.7565,-29.239 -2.2843,-5.9392 -2.3757,-8.1322 -0.54824,-12.701 l 0.82236,-2.193 1.3706,1.7361 c 2.1016,2.6498 4.3859,9.32 6.3961,19.097 1.5533,7.584 1.7361,10.051 1.3706,16.356 -0.54824,8.1322 -1.6447,14.254 -2.6498,14.894 -0.45687,0.0914 -0.73099,0 -0.73099,-0.27412 z m -104.71,-110.1 c 0,-3.1981 3.1067,-5.0255 16.721,-9.9597 15.077,-5.391 31.432,-10.782 46.783,-15.442 5.7565,-1.7361 10.782,-3.2894 11.33,-3.4722 1.5533,-0.54824 1.0965,1.8275 -0.73098,3.8377 -1.2792,1.462 -5.7565,3.1067 -19.097,7.4012 -19.28,6.122 -32.255,10.599 -45.595,15.716 -4.8428,1.8275 -8.9546,3.3808 -9.1373,3.3808 -0.18275,-0.0914 -0.27412,-0.73098 -0.27412,-1.462 z"
   fill="#2b1a10"
   stroke-width="0.91373"
   id="path4" />
</g>
</svg>
